<svg class="svg-standalone-icon" width="100%" viewBox="202.51576019219306 115 144.9684796156139 144.9692296180952" preserveAspectRatio="none"><g data-paper-data="{&quot;initialText&quot;:&quot;C&quot;,&quot;isIcon&quot;:&quot;true&quot;,&quot;iconType&quot;:&quot;initial&quot;,&quot;iconStyle&quot;:&quot;standalone&quot;,&quot;rawInitialId&quot;:669,&quot;selectedEffects&quot;:{&quot;container&quot;:&quot;&quot;,&quot;transformation&quot;:&quot;&quot;,&quot;pattern&quot;:&quot;&quot;},&quot;disableIconEffects&quot;:&quot;true&quot;,&quot;monogramSpecial&quot;:&quot;half-moon&quot;,&quot;bounds&quot;:{&quot;x&quot;:202.51576019219306,&quot;y&quot;:115,&quot;width&quot;:144.9684796156139,&quot;height&quot;:144.9692296180952},&quot;fillRule&quot;:&quot;evenodd&quot;,&quot;suitableAsStandaloneIcon&quot;:true}" fill-rule="evenodd"><g data-paper-data="{&quot;isPathIcon&quot;:true}"><path d="M223.82183,135.78407c-28.40809,28.40909 -28.40809,74.46925 0,102.87834c28.40909,28.40909 74.46925,28.40909 102.87834,0c11.98104,-11.98104 18.90906,-27.10109 20.78407,-42.71214c-2.95001,10.36603 -8.50703,20.14707 -16.66906,28.30909c-25.56808,25.56808 -67.02222,25.56808 -92.59031,0c-25.56808,-25.56808 -25.56708,-67.02222 0.001,-92.59031c8.16103,-8.16203 17.94206,-13.71905 28.30809,-16.66906c-15.61105,1.87501 -30.7311,8.80403 -42.71214,20.78407z" fill="#4e008e"></path><path d="M327.58517,217.20234c22.72708,-22.72808 22.72708,-59.5762 0,-82.30327c-22.72708,-22.72708 -59.5752,-22.72708 -82.30227,0c-9.58503,9.58503 -15.12805,21.68007 -16.62806,34.17011c2.36101,-8.29303 6.80602,-16.11805 13.33504,-22.64807c20.45507,-20.45407 53.61818,-20.45407 74.07225,0.001c20.45507,20.45407 20.45507,53.61718 0,74.07225c-6.52902,6.52902 -14.35405,10.97404 -22.64607,13.33504c12.48904,-1.5 24.58408,-7.04302 34.16911,-16.62706z" fill="#ef95cf"></path><path d="M252.50593,220.55035v-66.13222h44.98815v26.43009h-13.15904v-13.27104h-18.78206v39.81413h18.78206v-13.38404h13.15904v26.54309z" fill="#ef95cf"></path></g></g></svg>