<svg xmlns:mydata="http://www.w3.org/2000/svg" mydata:contrastcolor="ffffff" mydata:template="SingleColorHex1" mydata:presentation="2.5" mydata:layouttype="undefined" mydata:specialfontid="undefined" mydata:id1="669" mydata:id2="669" mydata:companyname="CauseDB" mydata:companytagline="" version="1.1" xmlns="http://www.w3.org/2000/svg" xmlns:xlink="http://www.w3.org/1999/xlink" viewBox="0 0 550 470" class="svg-primary-tile"><g fill="none" fill-rule="none" stroke="none" stroke-width="1" stroke-linecap="butt" stroke-linejoin="miter" stroke-miterlimit="10" stroke-dasharray="" stroke-dashoffset="0" font-family="none" font-weight="none" font-size="none" text-anchor="none" style="mix-blend-mode: normal"><g data-paper-data="{&quot;isGlobalGroup&quot;:true,&quot;bounds&quot;:{&quot;x&quot;:90.80896298838533,&quot;y&quot;:115,&quot;width&quot;:368.3820740232293,&quot;height&quot;:240}}"><g data-paper-data="{&quot;isPrimaryText&quot;:true}" fill="#4e008e" fill-rule="nonzero"><path d="M90.80896,291.27283v63.72717h43.35182v-25.57757h-12.68041v12.89717h-18.09938v-38.36636h18.09938v12.78879h12.68041v-25.46919z" data-paper-data="{&quot;glyphName&quot;:&quot;C&quot;,&quot;glyphIndex&quot;:0,&quot;firstGlyphOfWord&quot;:true,&quot;word&quot;:1}"></path><path d="M188.24217,291.27283h-43.35182v25.46919v12.68041v25.57757h12.57203v-12.68041v-12.89717h18.09938v12.89717v12.68041h12.68041zM175.56177,303.95323v12.78879h-18.09938v-12.78879z" data-paper-data="{&quot;glyphName&quot;:&quot;A&quot;,&quot;glyphIndex&quot;:1,&quot;word&quot;:1}"></path><path d="M199.08013,291.27283v63.72717h43.35182v-63.72717h-12.68041v51.04677h-18.09938v-51.04677z" data-paper-data="{&quot;glyphName&quot;:&quot;U&quot;,&quot;glyphIndex&quot;:2,&quot;word&quot;:1}"></path><path d="M253.2699,291.27283v38.1496h12.57203h13.2223h4.87708v12.89717h-18.09938v-6.50277h-12.57203v19.18318h43.35182v-38.25798h-12.68041h-9.64578h-8.4536v-12.78879h18.09938v6.61115h12.68041v-19.29156z" data-paper-data="{&quot;glyphName&quot;:&quot;S&quot;,&quot;glyphIndex&quot;:3,&quot;word&quot;:1}"></path><path d="M307.45967,291.27283v25.46919v12.68041v25.57757h43.35182v-12.68041h-30.77979v-12.89717h30.77979v-12.68041h-30.77979v-12.78879h30.77979v-12.68041z" data-paper-data="{&quot;glyphName&quot;:&quot;E&quot;,&quot;glyphIndex&quot;:4,&quot;word&quot;:1}"></path><path d="M361.64945,291.27283v12.68041h12.57203h9.10388h8.9955v38.36636h-18.09938v-25.57757h-12.57203v38.25798h30.67141l12.68041,-12.35527v-38.6915l-12.68041,-12.68041z" data-paper-data="{&quot;glyphName&quot;:&quot;D&quot;,&quot;glyphIndex&quot;:5,&quot;word&quot;:1}"></path><path d="M446.61901,291.27283h-8.88712v12.68041h8.88712v12.78879h-8.88712v12.68041h8.88712v12.89717h-8.88712v12.68041h8.88712l12.57203,-12.68041v-38.36636zM428.51963,342.31959v-12.89717h9.21226v-12.68041h-9.21226v-12.78879h9.21226v-12.68041h-21.89267v63.72717h21.89267v-12.68041z" data-paper-data="{&quot;glyphName&quot;:&quot;B&quot;,&quot;glyphIndex&quot;:6,&quot;lastGlyphOfWord&quot;:true,&quot;word&quot;:1}"></path></g><g data-paper-data="{&quot;initialText&quot;:&quot;C&quot;,&quot;isIcon&quot;:&quot;true&quot;,&quot;iconType&quot;:&quot;initial&quot;,&quot;iconStyle&quot;:&quot;standalone&quot;,&quot;rawInitialId&quot;:669,&quot;selectedEffects&quot;:{&quot;container&quot;:&quot;&quot;,&quot;transformation&quot;:&quot;&quot;,&quot;pattern&quot;:&quot;&quot;},&quot;disableIconEffects&quot;:&quot;true&quot;,&quot;monogramSpecial&quot;:&quot;half-moon&quot;,&quot;bounds&quot;:{&quot;x&quot;:202.51576019219306,&quot;y&quot;:115,&quot;width&quot;:144.9684796156139,&quot;height&quot;:144.9692296180952},&quot;fillRule&quot;:&quot;evenodd&quot;,&quot;suitableAsStandaloneIcon&quot;:true}" fill-rule="evenodd"><g data-paper-data="{&quot;isPathIcon&quot;:true}"><path d="M223.82183,135.78407c-28.40809,28.40909 -28.40809,74.46925 0,102.87834c28.40909,28.40909 74.46925,28.40909 102.87834,0c11.98104,-11.98104 18.90906,-27.10109 20.78407,-42.71214c-2.95001,10.36603 -8.50703,20.14707 -16.66906,28.30909c-25.56808,25.56808 -67.02222,25.56808 -92.59031,0c-25.56808,-25.56808 -25.56708,-67.02222 0.001,-92.59031c8.16103,-8.16203 17.94206,-13.71905 28.30809,-16.66906c-15.61105,1.87501 -30.7311,8.80403 -42.71214,20.78407z" fill="#4e008e"></path><path d="M327.58517,217.20234c22.72708,-22.72808 22.72708,-59.5762 0,-82.30327c-22.72708,-22.72708 -59.5752,-22.72708 -82.30227,0c-9.58503,9.58503 -15.12805,21.68007 -16.62806,34.17011c2.36101,-8.29303 6.80602,-16.11805 13.33504,-22.64807c20.45507,-20.45407 53.61818,-20.45407 74.07225,0.001c20.45507,20.45407 20.45507,53.61718 0,74.07225c-6.52902,6.52902 -14.35405,10.97404 -22.64607,13.33504c12.48904,-1.5 24.58408,-7.04302 34.16911,-16.62706z" fill="#4e008e"></path><path d="M252.50593,220.55035v-66.13222h44.98815v26.43009h-13.15904v-13.27104h-18.78206v39.81413h18.78206v-13.38404h13.15904v26.54309z" fill="#4e008e"></path></g></g></g></g></svg>